<?xml version="1.0" encoding="utf-8"?>
<!-- Generator: Adobe Illustrator 14.0.0, SVG Export Plug-In . SVG Version: 6.00 Build 43363)  -->
<!DOCTYPE svg PUBLIC "-//W3C//DTD SVG 1.1//EN" "http://www.w3.org/Graphics/SVG/1.1/DTD/svg11.dtd">
<svg version="1.1" id="Layer_1" xmlns="http://www.w3.org/2000/svg" xmlns:xlink="http://www.w3.org/1999/xlink" x="0px" y="0px"
	 width="593.83px" height="263.674px" viewBox="0 0 593.83 263.674" enable-background="new 0 0 593.83 263.674"
	 xml:space="preserve">
<g>
	<path d="M131.729,100.032v2.334H90.288v-2.334c5.764,0,9.881-4.938,9.881-14.27v-73.55L63.668,103.6h-2.334L22.915,21.271v46.377
		c0,0-0.276,32.384,18.661,32.384v2.334H0v-2.334c20.582,0,20.582-32.384,20.582-32.384V17.564
		C15.367,8.372,8.506,8.372,5.075,8.098V5.764h34.581l33.068,69.569l27.445-69.569h30.324v2.334
		c-5.901,0-10.565,3.704-10.565,12.073v65.591C119.927,95.094,125.828,100.032,131.729,100.032z"/>
	<path d="M160.806,100.032v2.334h-28.13v-2.334c5.214-1.647,5.488-7.409,5.488-14.407V55.162c0-4.665-1.371-6.585-6.999-9.605
		v-2.331l24.015-5.491v47.891C155.181,93.311,155.867,98.662,160.806,100.032z M145.299,26.759c-5.211,0-9.329-4.117-9.329-9.332
		c0-5.215,4.118-9.329,9.329-9.329c5.214,0,9.469,4.114,9.469,9.329C154.768,22.642,150.513,26.759,145.299,26.759z"/>
	<path d="M190.169,100.032v2.334h-28.267v-2.334c5.215-1.507,5.488-7.271,5.488-14.27V16.33c0-4.801-1.371-6.861-6.859-8.919V5.078
		L184.544,0v85.762C184.544,93.311,185.231,98.798,190.169,100.032z M234.215,100.032v2.334h-19.348
		c-9.466,0-10.702-2.471-19.895-16.191c-4.118-6.038-7.685-11.529-7.685-11.529l12.899-13.996c0,0,19.621-19.895,1.784-19.348
		v-2.331h33.344v2.331c-2.47,0.276-16.467,0.687-34.717,23.191c20.308,28.68,20.584,28.68,20.584,28.68
		C225.71,99.485,231.885,99.896,234.215,100.032z"/>
	<path d="M294.45,70.669c0,17.974-11.666,32.931-32.657,32.931c-20.858,0-32.66-14.957-32.66-32.931
		c0-18.114,11.802-32.934,32.66-32.934C282.784,37.735,294.45,52.555,294.45,70.669z M274.142,70.669
		c0-24.836-2.471-30.6-12.35-30.6c-9.882,0-12.489,5.764-12.489,30.6c0,24.835,2.607,30.6,12.489,30.6
		C271.671,101.269,274.142,95.504,274.142,70.669z"/>
	<path d="M294.444,62.574l12.35-7.958V16.33c0-4.801-1.374-6.861-6.861-8.919V5.078L323.945,0v43.5l12.213-7.958v2.744
		l-12.213,7.958v39.519c0,7.548,0.687,13.036,5.491,14.27v2.334h-28.13v-2.334c5.212-1.507,5.488-7.271,5.488-14.27V57.359
		l-12.35,7.958V62.574z"/>
	<path d="M400.232,92.897l2.334,0.96c-1.098,4.391-7.409,9.742-16.054,9.742c0,0-12.212,0-13.723-11.113
		c-2.057,6.038-10.155,11.113-19.897,11.113c0,0-15.78,0-15.78-13.996c0-14.957,11.529-16.328,35.541-22.365V58.73
		c0-14.271-7.958-21.405-17.427-16.464c-4.392,2.194-4.941,4.528-3.979,4.665c2.058,0.273,3.842,1.234,5.075,3.018
		c2.471,3.567,1.511,8.372-2.058,10.842c-3.567,2.331-8.371,1.507-10.839-2.06c-1.646-2.607-1.784-5.898-0.413-8.232
		c1.373-2.333,3.157-6.038,10.702-10.016c6.175-3.294,13.311-2.747,13.311-2.747c17.977,0,22.918,11.252,22.918,27.446v20.445
		c0,0-0.14,9.605,6.585,9.605C396.529,95.231,399.41,95.231,400.232,92.897z M372.653,69.708
		c-13.446,3.018-17.977,9.469-17.977,16.467c0,0,0,9.056,8.921,9.056c4.665,0,7.819-3.704,9.056-6.998
		C372.653,87.959,372.653,69.708,372.653,69.708z"/>
	<path d="M407.773,55.712c0-4.665-1.234-7.135-6.859-10.155v-2.331l23.875-5.491v57.77c0,25.936-11.803,34.718-25.385,38.148v-2.333
		c8.37-2.058,8.37-32.658,8.37-32.658V55.712z M415.047,26.759c-5.078,0-9.332-4.117-9.332-9.332c0-5.215,4.254-9.329,9.332-9.329
		c5.215,0,9.467,4.114,9.467,9.329C424.514,22.642,420.262,26.759,415.047,26.759z"/>
	<path d="M131.729,260.106v2.334H90.288v-2.334c5.764,0,9.881-4.938,9.881-14.27v-73.55l-36.501,91.388h-2.334l-38.419-82.329
		v46.377c0,0-0.276,32.384,18.661,32.384v2.334H0v-2.334c20.582,0,20.582-32.384,20.582-32.384v-50.084
		c-5.214-9.192-12.076-9.192-15.507-9.466v-2.334h34.581l33.068,69.569l27.445-69.569h30.324v2.334
		c-5.901,0-10.565,3.704-10.565,12.073v65.591C119.927,255.168,125.828,260.106,131.729,260.106z"/>
	<path d="M196.07,252.971l2.333,0.961c-1.097,4.391-7.409,9.742-16.054,9.742c0,0-12.213,0-13.723-11.113
		c-2.057,6.038-10.155,11.113-19.897,11.113c0,0-15.78,0-15.78-13.997c0-14.956,11.529-16.327,35.541-22.365v-8.508
		c0-14.271-7.958-21.405-17.427-16.464c-4.391,2.194-4.941,4.528-3.978,4.665c2.057,0.273,3.841,1.234,5.075,3.018
		c2.471,3.567,1.51,8.371-2.057,10.842c-3.567,2.331-8.372,1.508-10.839-2.06c-1.647-2.607-1.784-5.899-0.413-8.232
		c1.374-2.333,3.157-6.038,10.703-10.016c6.175-3.294,13.31-2.747,13.31-2.747c17.977,0,22.918,11.252,22.918,27.446V245.7
		c0,0-0.14,9.605,6.585,9.605C192.366,255.305,195.247,255.305,196.07,252.971z M168.49,229.783
		c-13.446,3.018-17.977,9.469-17.977,16.467c0,0,0,9.056,8.922,9.056c4.665,0,7.819-3.704,9.055-6.998
		C168.49,248.034,168.49,229.783,168.49,229.783z"/>
	<path d="M225.431,260.106v2.334h-28.129v-2.334c5.214-1.507,5.488-7.271,5.488-14.27v-69.432c0-4.801-1.371-6.861-6.858-8.919
		v-2.333l24.012-5.078v85.762C219.943,253.384,220.629,258.873,225.431,260.106z"/>
	<path d="M296.917,257.639v2.33l-20.308,3.568c-3.705,0.55-3.841-2.607-3.841-2.607v-12.073
		c-3.294,7.818-14.683,14.817-23.191,14.817c-10.839,0-17.291-4.528-17.291-20.992v-29.366c0-8.232,0.276-9.469-7.682-10.566v-2.333
		l24.699-2.607v44.46c0,7.685,3.567,11.389,11.526,11.389c3.841,0,9.056-3.431,11.939-8.918v-31.011
		c0-8.372,0.547-10.155-6.451-10.979v-2.333l23.602-2.607v52.008C289.919,256.402,291.153,256.952,296.917,257.639z"/>
	<path d="M356.055,245.973c-1.924,6.998-10.155,17.701-27.309,17.701c-17.975,0-30.187-17.151-30.187-33.205
		c0-15.78,12.076-32.66,35.538-32.66c9.745,0,15.644,3.981,17.978,6.038c2.333,2.06,3.704,5.901,2.743,9.195
		c-1.37,4.801-6.312,7.958-11.252,6.585c-4.938-1.234-7.821-6.312-6.448-11.113c0.55-2.607,2.194-4.391,4.254-5.491
		c1.234-0.547-1.783-2.88-7.274-2.88c-4.938,0-18.248,4.254-18.248,27.855c0,14.82,7.958,21.405,17.428,23.466
		c6.858,1.507,17.7-2.197,20.854-6.725L356.055,245.973z"/>
	<path d="M423.424,260.106v2.334h-28.129v-2.334c5.215-1.507,5.489-7.545,5.489-14.543v-25.936c0-7.822-3.568-11.526-11.527-11.526
		c-3.844,0-8.508,2.744-11.389,8.235v29.227c0,7.545,0.687,13.173,5.625,14.406v2.471h-28.267v-2.471
		c5.214-1.51,5.487-7.408,5.487-14.406v-69.159c0-4.801-1.37-6.175-6.858-8.232v-2.334l24.013-5.764v52.555
		c2.607-7.271,14.133-14.82,22.642-14.82c10.975,0,17.287,4.804,17.287,21.271v26.482
		C417.797,253.108,418.621,258.873,423.424,260.106z"/>
	<path d="M489.691,260.106v2.334h-28.268v-2.334c5.215-1.507,5.488-7.408,5.488-14.406v-26.619c0-6.588-4.254-11.39-11.115-11.39
		c-5.352,0-11.662,5.762-11.662,11.25v27.032c0,7.548,0.822,12.763,5.625,14.133v2.334h-28.131v-2.334
		c5.215-1.507,5.352-7.135,5.352-14.133v-31.01c0-4.804-1.234-6.312-6.859-9.332V203.3l24.014-5.491v14.683
		c3.156-8.369,13.996-14.683,22.641-14.683c10.703,0,17.287,4.254,17.287,20.858V245.7
		C484.063,253.248,484.75,258.873,489.691,260.106z"/>
	<path d="M519.322,260.106v2.334h-28.129v-2.334c5.215-1.646,5.488-7.408,5.488-14.406v-30.463c0-4.665-1.371-6.585-7-9.605V203.3
		l24.016-5.491V245.7C513.697,253.384,514.381,258.736,519.322,260.106z M503.816,186.833c-5.213,0-9.33-4.117-9.33-9.332
		c0-5.215,4.117-9.329,9.33-9.329c5.215,0,9.469,4.114,9.469,9.329C513.285,182.716,509.031,186.833,503.816,186.833z"/>
	<path d="M548.684,260.106v2.334h-28.268v-2.334c5.215-1.507,5.488-7.271,5.488-14.27v-69.432c0-4.801-1.371-6.861-6.857-8.919
		v-2.333l24.012-5.078v85.762C543.059,253.384,543.744,258.873,548.684,260.106z M592.73,260.106v2.334h-19.348
		c-9.467,0-10.703-2.471-19.896-16.19c-4.117-6.038-7.684-11.528-7.684-11.528l12.898-13.997c0,0,19.621-19.895,1.785-19.348v-2.331
		h33.344v2.331c-2.471,0.276-16.467,0.687-34.719,23.191c20.309,28.68,20.586,28.68,20.586,28.68
		C584.225,259.559,590.398,259.969,592.73,260.106z"/>
</g>
</svg>
