<svg xmlns="http://www.w3.org/2000/svg" width="664" height="200" viewBox="0 0 664 200">
  <defs>
    <style>
      .cls-1 {
        fill-rule: evenodd;
      }
    </style>
  </defs>
  <path id="Mikołaj_Maluchnik" data-name="Mikołaj Maluchnik" class="cls-1" d="M5.49,9.609V93.5H22.775V70.568L21.047,31.043,43.633,93.5H55.5L78.146,30.985,76.417,70.568V93.5H93.76V9.609h-22.7L49.625,70.453,28.076,9.609H5.49Zm119.385,0H107.59V93.5h17.285V9.609ZM186.355,93.5h20.57L176.272,46.888,206.06,9.609H184.8l-21.376,27.6-7.606,10.429V9.609H138.533V93.5h17.285V69.531l8.988-9.68ZM278.2,49.711a50.249,50.249,0,0,0-4.465-21.751A33.252,33.252,0,0,0,261.116,13.5a36.978,36.978,0,0,0-37.279,0A33.252,33.252,0,0,0,211.219,27.96a50.376,50.376,0,0,0-4.465,21.808v4.148a49.187,49.187,0,0,0,4.552,21.4A33.3,33.3,0,0,0,223.982,89.64a37.03,37.03,0,0,0,37.307-.058,32.972,32.972,0,0,0,12.531-14.4A50.644,50.644,0,0,0,278.2,53.456V49.711Zm-17.515,4.033q-0.059,13.08-4.725,19.907t-13.367,6.828q-8.874,0-13.6-7.087T224.27,53.456V49.365q0.055-13.079,4.782-19.849t13.425-6.77q8.757,0,13.482,6.856t4.725,20.051v4.091Zm46.9-44.135H290.3V46.945l-7.72,2.189V58.7l7.72-2.189V93.5h53.988V79.614h-36.7V51.5l12.388-3.572V38.36l-12.388,3.572V9.609ZM405.019,93.5H423.4L392,9.609H375.98L344.752,93.5h18.38l5.761-17.285H399.2Zm-21.03-62.687,10.544,31.4H373.56ZM462.7,67.688q0,6.281-2.938,9.68a9.9,9.9,0,0,1-7.894,3.4q-5.589,0-8.181-2.938t-2.593-9.1h-17.4q0,12.389,7.432,19.158t20.742,6.77a31.243,31.243,0,0,0,14.578-3.342,24.047,24.047,0,0,0,10-9.478,27.776,27.776,0,0,0,3.544-14.145V9.609H462.7V67.688ZM5.49,104.609V188.5H22.775V165.568l-1.729-39.525L43.633,188.5H55.5l22.643-62.515-1.728,39.583V188.5H93.76V104.609h-22.7L49.625,165.453,28.076,104.609H5.49ZM160.713,188.5h18.38l-31.4-83.891H131.674L100.446,188.5h18.38l5.761-17.285h30.307Zm-21.03-62.688,10.544,31.4H129.254Zm62.171-21.2H184.569V188.5h53.987V174.614h-36.7V104.609Zm89.021,0V160.44q-0.231,15.327-14.808,15.327-6.972,0-10.918-3.774T261.2,159.979v-55.37H243.917V160.5q0.173,13.6,8.815,21.376t23.335,7.778q14.922,0,23.537-8.008t8.614-21.78V104.609H290.875ZM368.6,160.556q-0.576,7.663-4.523,11.321t-11.956,3.659q-8.873,0-12.992-6.28t-4.12-19.878V143.04q0.115-13.02,4.408-19.215t12.935-6.194q7.952,0,11.84,3.659t4.523,11.782H386q-1.383-14.058-10.256-21.837t-23.392-7.778a34.135,34.135,0,0,0-18.409,4.926,31.95,31.95,0,0,0-12.186,14.145,50.281,50.281,0,0,0-4.263,21.319v5.128q0,18.957,9.247,29.817t25.38,10.86q14.749,0,23.768-7.778t10-21.318H368.6Zm94.552-55.947H445.87v34H412.164v-34H394.879V188.5h17.285V152.547H445.87V188.5h17.285V104.609Zm80.954,0H526.882v55.313l-33.706-55.313H475.891V188.5h17.285V133.3l33.648,55.2h17.285V104.609Zm31.116,0H557.94V188.5h17.285V104.609Zm61.48,83.891h20.569l-30.652-46.612,29.788-37.279H635.149l-21.376,27.6-7.605,10.429V104.609H588.883V188.5h17.285V164.531l8.988-9.679Z"/>
</svg>
