<svg xmlns="http://www.w3.org/2000/svg" width="590" height="192" viewBox="0 0 590 192"><path data-name="Mikołaj Maluchnik" d="M8.6 6.609V90.5h7.087V53.74l-.575-36.932L46.226 90.5H51.7l31.228-73.98-.576 37.451V90.5h7.087V6.609h-9.45L48.934 80.648 17.993 6.609H8.6zm110.74 0h-7.087V90.5h7.087V6.609zM195.166 90.5h8.643l-37.855-46.555L201.1 6.609h-8.93l-42.983 45.23V6.609H142.1V90.5h7.086V60.481L161 48.843zm81.586-47.419a47.5 47.5 0 00-4.206-19.763 30.67 30.67 0 00-11.437-13.194 33.389 33.389 0 00-34.2.086 31.029 31.029 0 00-11.5 13.6 48.176 48.176 0 00-4.062 20.31v8.642q0 17.862 9.046 28.377t23.739 10.515a31.314 31.314 0 0017.17-4.725 30.56 30.56 0 0011.437-13.482 48.478 48.478 0 004-20.339V43.081zm-7.087 9.795q0 15.384-6.741 24t-18.783 8.614q-11.871 0-18.784-8.729t-6.914-23.652v-8.76q0-15.44 6.943-24.055t18.639-8.614q11.928 0 18.784 8.585T269.665 44v8.873zm31.862-46.267h-7.144v39.122l-9.161 2.881V53.8l9.161-2.881V90.5H342.9v-5.992h-41.373v-35.9l17.689-5.589v-5.181l-17.689 5.589V6.609zM410.942 90.5h7.375L386.57 6.609h-6.741L348.082 90.5h7.433l8.642-23.565h38.085zm-27.771-75.248L400 60.942h-33.653zm84.524 50.7q-.115 9.1-5.156 14.4a17.2 17.2 0 01-13.051 5.3q-8.7 0-13.482-4.581T431.224 67.4h-7.087q0 11.466 6.568 17.861t18.783 6.4q11.582 0 18.467-7.087t6.885-19.014V6.609h-7.14v59.346zM8.6 101.609V185.5h7.087v-36.76l-.576-36.932L46.226 185.5H51.7l31.229-73.98-.576 37.451V185.5h7.087v-83.891h-9.451l-31.055 74.038-30.94-74.038H8.6zM156.52 185.5h7.38l-31.747-83.891h-6.742L93.659 185.5h7.433l8.642-23.565h38.085zm-27.772-75.248l16.824 45.69h-33.648zm45.417-8.643h-7.144V185.5h48.571v-5.992h-41.427v-77.9zm93.355 0v56.811q0 10.487-6.021 16.363t-16.392 5.877q-10.371 0-16.421-5.848t-6.05-16.45v-56.753h-7.029V159.4q.288 12.792 8.268 20.022t21.232 7.231a33.9 33.9 0 0015.412-3.37 24.538 24.538 0 0010.4-9.651 29 29 0 003.745-14.75v-57.273h-7.144zm69.962 57.733q-1.326 10.66-6.972 15.989t-16.766 5.329q-11.237 0-17.833-8.649t-6.6-23.18v-10.264q0-15.048 6.77-23.583t18.178-8.535q20.57 0 23.22 21.376h7.144q-1.267-12.847-9.074-20.108t-21.29-7.26a30.721 30.721 0 00-16.911 4.7 30.135 30.135 0 00-11.264 13.338 47.54 47.54 0 00-3.918 19.821V149.2a47.081 47.081 0 003.976 19.561 30.43 30.43 0 0011.091 13.223 29.586 29.586 0 0016.508 4.667q13.365 0 21.4-7.029t9.478-20.281h-7.144zm77.337-57.733h-7.145v37.682h-47.937v-37.682h-7.087V185.5h7.087v-40.217h47.937V185.5h7.145v-83.891zm74.571 0h-7.029v71.849l-48.283-71.849h-7.145V185.5h7.145v-71.791L482.3 185.5h7.087v-83.891zm20.757 0h-7.087V185.5h7.087v-83.891zm66.62 83.891h8.643l-37.855-46.555 35.145-37.336h-8.931l-42.982 45.23v-45.23H523.7V185.5h7.087v-30.019l11.813-11.638z" fill-rule="evenodd"/></svg>