<svg xmlns="http://www.w3.org/2000/svg" width="593.83" height="263.674" viewBox="0 0 593.83 263.674"><path d="M131.729 100.032v2.334H90.288v-2.334c5.764 0 9.881-4.938 9.881-14.27v-73.55L63.668 103.6h-2.334L22.915 21.271v46.377s-.276 32.384 18.661 32.384v2.334H0v-2.334c20.582 0 20.582-32.384 20.582-32.384V17.564C15.367 8.372 8.506 8.372 5.075 8.098V5.764h34.581l33.068 69.569 27.445-69.569h30.324v2.334c-5.901 0-10.565 3.704-10.565 12.073v65.591c-.001 9.332 5.9 14.27 11.801 14.27zm29.077 0v2.334h-28.13v-2.334c5.214-1.647 5.488-7.409 5.488-14.407V55.162c0-4.665-1.371-6.585-6.999-9.605v-2.331l24.015-5.491v47.891c.001 7.685.687 13.036 5.626 14.406zm-15.507-73.273c-5.211 0-9.329-4.117-9.329-9.332 0-5.215 4.118-9.329 9.329-9.329 5.214 0 9.469 4.114 9.469 9.329 0 5.215-4.255 9.332-9.469 9.332zm44.87 73.273v2.334h-28.267v-2.334c5.215-1.507 5.488-7.271 5.488-14.27V16.33c0-4.801-1.371-6.861-6.859-8.919V5.078L184.544 0v85.762c0 7.549.687 13.036 5.625 14.27zm44.046 0v2.334h-19.348c-9.466 0-10.702-2.471-19.895-16.191-4.118-6.038-7.685-11.529-7.685-11.529l12.899-13.996s19.621-19.895 1.784-19.348v-2.331h33.344v2.331c-2.47.276-16.467.687-34.717 23.191 20.308 28.68 20.584 28.68 20.584 28.68 4.529 6.312 10.704 6.723 13.034 6.859z"/><path d="M294.45 70.669c0 17.974-11.666 32.931-32.657 32.931-20.858 0-32.66-14.957-32.66-32.931 0-18.114 11.802-32.934 32.66-32.934 20.991 0 32.657 14.82 32.657 32.934zm-20.308 0c0-24.836-2.471-30.6-12.35-30.6-9.882 0-12.489 5.764-12.489 30.6 0 24.835 2.607 30.6 12.489 30.6 9.879 0 12.35-5.765 12.35-30.6z"/><path d="M294.444 62.574l12.35-7.958V16.33c0-4.801-1.374-6.861-6.861-8.919V5.078L323.945 0v43.5l12.213-7.958v2.744l-12.213 7.958v39.519c0 7.548.687 13.036 5.491 14.27v2.334h-28.13v-2.334c5.212-1.507 5.488-7.271 5.488-14.27V57.359l-12.35 7.958v-2.743zm105.788 30.323l2.334.96c-1.098 4.391-7.409 9.742-16.054 9.742 0 0-12.212 0-13.723-11.113-2.057 6.038-10.155 11.113-19.897 11.113 0 0-15.78 0-15.78-13.996 0-14.957 11.529-16.328 35.541-22.365V58.73c0-14.271-7.958-21.405-17.427-16.464-4.392 2.194-4.941 4.528-3.979 4.665 2.058.273 3.842 1.234 5.075 3.018 2.471 3.567 1.511 8.372-2.058 10.842-3.567 2.331-8.371 1.507-10.839-2.06-1.646-2.607-1.784-5.898-.413-8.232 1.373-2.333 3.157-6.038 10.702-10.016 6.175-3.294 13.311-2.747 13.311-2.747 17.977 0 22.918 11.252 22.918 27.446v20.445s-.14 9.605 6.585 9.605c.001-.001 2.882-.001 3.704-2.335zm-27.579-23.189c-13.446 3.018-17.977 9.469-17.977 16.467 0 0 0 9.056 8.921 9.056 4.665 0 7.819-3.704 9.056-6.998V69.708z"/><path d="M407.773 55.712c0-4.665-1.234-7.135-6.859-10.155v-2.331l23.875-5.491v57.77c0 25.936-11.803 34.718-25.385 38.148v-2.333c8.37-2.058 8.37-32.658 8.37-32.658v-42.95zm7.274-28.953c-5.078 0-9.332-4.117-9.332-9.332 0-5.215 4.254-9.329 9.332-9.329 5.215 0 9.467 4.114 9.467 9.329 0 5.215-4.252 9.332-9.467 9.332zM131.729 260.106v2.334H90.288v-2.334c5.764 0 9.881-4.938 9.881-14.27v-73.55l-36.501 91.388h-2.334l-38.419-82.329v46.377s-.276 32.384 18.661 32.384v2.334H0v-2.334c20.582 0 20.582-32.384 20.582-32.384v-50.084c-5.214-9.192-12.076-9.192-15.507-9.466v-2.334h34.581l33.068 69.569 27.445-69.569h30.324v2.334c-5.901 0-10.565 3.704-10.565 12.073v65.591c-.001 9.332 5.9 14.27 11.801 14.27zm64.341-7.135l2.333.961c-1.097 4.391-7.409 9.742-16.054 9.742 0 0-12.213 0-13.723-11.113-2.057 6.038-10.155 11.113-19.897 11.113 0 0-15.78 0-15.78-13.997 0-14.956 11.529-16.327 35.541-22.365v-8.508c0-14.271-7.958-21.405-17.427-16.464-4.391 2.194-4.941 4.528-3.978 4.665 2.057.273 3.841 1.234 5.075 3.018 2.471 3.567 1.51 8.371-2.057 10.842-3.567 2.331-8.372 1.508-10.839-2.06-1.647-2.607-1.784-5.899-.413-8.232 1.374-2.333 3.157-6.038 10.703-10.016 6.175-3.294 13.31-2.747 13.31-2.747 17.977 0 22.918 11.252 22.918 27.446V245.7s-.14 9.605 6.585 9.605c-.001 0 2.88 0 3.703-2.334zm-27.58-23.188c-13.446 3.018-17.977 9.469-17.977 16.467 0 0 0 9.056 8.922 9.056 4.665 0 7.819-3.704 9.055-6.998v-18.525z"/><path d="M225.431 260.106v2.334h-28.129v-2.334c5.214-1.507 5.488-7.271 5.488-14.27v-69.432c0-4.801-1.371-6.861-6.858-8.919v-2.333l24.012-5.078v85.762c-.001 7.548.685 13.037 5.487 14.27zm71.486-2.467v2.33l-20.308 3.568c-3.705.55-3.841-2.607-3.841-2.607v-12.073c-3.294 7.818-14.683 14.817-23.191 14.817-10.839 0-17.291-4.528-17.291-20.992v-29.366c0-8.232.276-9.469-7.682-10.566v-2.333l24.699-2.607v44.46c0 7.685 3.567 11.389 11.526 11.389 3.841 0 9.056-3.431 11.939-8.918V213.73c0-8.372.547-10.155-6.451-10.979v-2.333l23.602-2.607v52.008c0 6.583 1.234 7.133 6.998 7.82zm59.138-11.666c-1.924 6.998-10.155 17.701-27.309 17.701-17.975 0-30.187-17.151-30.187-33.205 0-15.78 12.076-32.66 35.538-32.66 9.745 0 15.644 3.981 17.978 6.038 2.333 2.06 3.704 5.901 2.743 9.195-1.37 4.801-6.312 7.958-11.252 6.585-4.938-1.234-7.821-6.312-6.448-11.113.55-2.607 2.194-4.391 4.254-5.491 1.234-.547-1.783-2.88-7.274-2.88-4.938 0-18.248 4.254-18.248 27.855 0 14.82 7.958 21.405 17.428 23.466 6.858 1.507 17.7-2.197 20.854-6.725l1.923 1.234z"/><path d="M423.424 260.106v2.334h-28.129v-2.334c5.215-1.507 5.489-7.545 5.489-14.543v-25.936c0-7.822-3.568-11.526-11.527-11.526-3.844 0-8.508 2.744-11.389 8.235v29.227c0 7.545.687 13.173 5.625 14.406v2.471h-28.267v-2.471c5.214-1.51 5.487-7.408 5.487-14.406v-69.159c0-4.801-1.37-6.175-6.858-8.232v-2.334l24.013-5.764v52.555c2.607-7.271 14.133-14.82 22.642-14.82 10.975 0 17.287 4.804 17.287 21.271v26.482c0 7.546.824 13.311 5.627 14.544z"/><path d="M489.691 260.106v2.334h-28.268v-2.334c5.215-1.507 5.488-7.408 5.488-14.406v-26.619c0-6.588-4.254-11.39-11.115-11.39-5.352 0-11.662 5.762-11.662 11.25v27.032c0 7.548.822 12.763 5.625 14.133v2.334h-28.131v-2.334c5.215-1.507 5.352-7.135 5.352-14.133v-31.01c0-4.804-1.234-6.312-6.859-9.332V203.3l24.014-5.491v14.683c3.156-8.369 13.996-14.683 22.641-14.683 10.703 0 17.287 4.254 17.287 20.858V245.7c0 7.548.687 13.173 5.628 14.406zm29.631 0v2.334h-28.129v-2.334c5.215-1.646 5.488-7.408 5.488-14.406v-30.463c0-4.665-1.371-6.585-7-9.605V203.3l24.016-5.491V245.7c0 7.684.684 13.036 5.625 14.406zm-15.506-73.273c-5.213 0-9.33-4.117-9.33-9.332 0-5.215 4.117-9.329 9.33-9.329 5.215 0 9.469 4.114 9.469 9.329 0 5.215-4.254 9.332-9.469 9.332zm44.868 73.273v2.334h-28.268v-2.334c5.215-1.507 5.488-7.271 5.488-14.27v-69.432c0-4.801-1.371-6.861-6.857-8.919v-2.333l24.012-5.078v85.762c0 7.548.685 13.037 5.625 14.27zm44.046 0v2.334h-19.348c-9.467 0-10.703-2.471-19.896-16.19-4.117-6.038-7.684-11.528-7.684-11.528l12.898-13.997s19.621-19.895 1.785-19.348v-2.331h33.344v2.331c-2.471.276-16.467.687-34.719 23.191 20.309 28.68 20.586 28.68 20.586 28.68 4.529 6.311 10.702 6.721 13.034 6.858z"/></svg>