<svg xmlns="http://www.w3.org/2000/svg" width="664" height="200" viewBox="0 0 664 200"><path data-name="Mikołaj Maluchnik" d="M5.49 9.609V93.5h17.285V70.568l-1.728-39.525L43.633 93.5H55.5l22.646-62.515-1.729 39.583V93.5H93.76V9.609h-22.7L49.625 70.453 28.076 9.609H5.49zm119.385 0H107.59V93.5h17.285V9.609zm61.48 83.891h20.57l-30.653-46.612L206.06 9.609H184.8l-21.376 27.6-7.606 10.429V9.609h-17.285V93.5h17.285V69.531l8.988-9.68zM278.2 49.711a50.249 50.249 0 00-4.465-21.751 33.252 33.252 0 00-12.619-14.46 36.978 36.978 0 00-37.279 0 33.252 33.252 0 00-12.618 14.46 50.376 50.376 0 00-4.465 21.808v4.148a49.187 49.187 0 004.552 21.4 33.3 33.3 0 0012.676 14.324 37.03 37.03 0 0037.307-.058 32.972 32.972 0 0012.531-14.4 50.644 50.644 0 004.38-21.726v-3.745zm-17.515 4.033q-.059 13.08-4.725 19.907t-13.367 6.828q-8.874 0-13.6-7.087t-4.723-19.936v-4.091q.055-13.079 4.782-19.849t13.425-6.77q8.757 0 13.482 6.856t4.725 20.051v4.091zm46.9-44.135H290.3v37.336l-7.72 2.189V58.7l7.72-2.189V93.5h53.988V79.614h-36.7V51.5l12.388-3.572V38.36l-12.388 3.572V9.609zM405.019 93.5H423.4L392 9.609h-16.02L344.752 93.5h18.38l5.761-17.285H399.2zm-21.03-62.687l10.544 31.4H373.56zM462.7 67.688q0 6.281-2.938 9.68a9.9 9.9 0 01-7.894 3.4q-5.589 0-8.181-2.938t-2.593-9.1h-17.4q0 12.389 7.432 19.158t20.742 6.77a31.243 31.243 0 0014.578-3.342 24.047 24.047 0 0010-9.478 27.776 27.776 0 003.544-14.145V9.609H462.7v58.079zM5.49 104.609V188.5h17.285v-22.932l-1.729-39.525L43.633 188.5H55.5l22.643-62.515-1.728 39.583V188.5H93.76v-83.891h-22.7l-21.435 60.844-21.549-60.844H5.49zM160.713 188.5h18.38l-31.4-83.891h-16.019L100.446 188.5h18.38l5.761-17.285h30.307zm-21.03-62.688l10.544 31.4h-20.973zm62.171-21.2h-17.285V188.5h53.987v-13.886h-36.7v-70.005zm89.021 0v55.828q-.231 15.327-14.808 15.327-6.972 0-10.918-3.774t-3.949-12.014v-55.37h-17.283V160.5q.173 13.6 8.815 21.376t23.335 7.778q14.922 0 23.537-8.008t8.614-21.78v-55.257h-17.343zm77.725 55.944q-.576 7.663-4.523 11.321t-11.956 3.659q-8.873 0-12.992-6.28t-4.12-19.878v-6.338q.115-13.02 4.408-19.215t12.935-6.194q7.952 0 11.84 3.659t4.523 11.782H386q-1.383-14.058-10.256-21.837t-23.392-7.778a34.135 34.135 0 00-18.409 4.926 31.95 31.95 0 00-12.186 14.145 50.281 50.281 0 00-4.263 21.319v5.128q0 18.957 9.247 29.817t25.38 10.86q14.749 0 23.768-7.778t10-21.318H368.6zm94.552-55.947H445.87v34h-33.706v-34h-17.285V188.5h17.285v-35.953h33.706V188.5h17.285v-83.891zm80.954 0h-17.224v55.313l-33.706-55.313h-17.285V188.5h17.285v-55.2l33.648 55.2h17.285v-83.891zm31.116 0H557.94V188.5h17.285v-83.891zm61.48 83.891h20.569l-30.652-46.612 29.788-37.279h-21.258l-21.376 27.6-7.605 10.429v-38.029h-17.285V188.5h17.285v-23.969l8.988-9.679z" fill-rule="evenodd"/></svg>