<svg xmlns="http://www.w3.org/2000/svg" width="572" height="200" viewBox="0 0 572 200"><path data-name="Mikołaj Maluchnik" d="M3.317 6.609V90.5h14.866V65.667l-.692-37.682 9.853 34.858h8.009l11-36.414-.687 39.238V90.5h14.865V6.609H40.423l-9.046 31.517-7.951-31.517H3.317zm67.622 34.628h17.746v36.242H70.939V90.5h50.819V77.479h-16.882V28.158H70.939v13.079zM88.2 15.627a7.684 7.684 0 001.873 2.708 8.664 8.664 0 002.91 1.757 10.715 10.715 0 003.774.634 9.4 9.4 0 006.77-2.391 8.1 8.1 0 002.506-6.136 8.107 8.107 0 00-2.506-6.136 9.4 9.4 0 00-6.77-2.391 10.735 10.735 0 00-3.774.634 8.679 8.679 0 00-2.91 1.757A7.691 7.691 0 0088.2 8.77a8.792 8.792 0 00-.663 3.428 8.787 8.787 0 00.663 3.429zM170.366 90.5h19.647l-26.792-36.356 23.508-25.985h-19.244l-17.228 18.9-4.84 5.531V2H129.4v88.5h16.017V71.486l7.26-6.741zm19.223-30.537a39.24 39.24 0 001.959 12.647 28.989 28.989 0 005.733 10.054 26.057 26.057 0 009.276 6.655 31.171 31.171 0 0012.532 2.391 30.814 30.814 0 0012.445-2.391 25.848 25.848 0 009.219-6.655 29.233 29.233 0 005.7-10.054 39.24 39.24 0 001.959-12.647v-1.21a39.056 39.056 0 00-1.959-12.589 29 29 0 00-5.733-10.054 26.452 26.452 0 00-9.247-6.684 33.435 33.435 0 00-24.977 0 26.509 26.509 0 00-9.219 6.684 29 29 0 00-5.733 10.054 39.056 39.056 0 00-1.959 12.589v1.21zm16.018-1.21a33.368 33.368 0 01.749-7.2 18.935 18.935 0 012.362-5.992 12.073 12.073 0 014.148-4.091 11.8 11.8 0 016.108-1.5 11.318 11.318 0 0110.285 5.589 19.438 19.438 0 012.333 5.992 33.431 33.431 0 01.749 7.2v1.21a34.388 34.388 0 01-.749 7.346 19.054 19.054 0 01-2.333 5.992 11.913 11.913 0 01-4.12 4.062 11.679 11.679 0 01-6.05 1.5 11.557 11.557 0 01-10.371-5.56 18.568 18.568 0 01-2.362-5.992 34.324 34.324 0 01-.749-7.346v-1.21zM293.337 2h-34.858v13.079h18.668v23.854l-17.977 7.951v11.235l17.977-7.951v27.31h-18.668V90.5H311.2V77.479h-17.863V43.023l16.19-7.2V24.586l-16.19 7.2V2zm78.742 88.5v-.98a21.152 21.152 0 01-1.844-5.647 44.932 44.932 0 01-.634-8.3v-26.73a21.442 21.442 0 00-2.016-9.536A18.837 18.837 0 00362 32.48a25.238 25.238 0 00-8.441-4.091 38.351 38.351 0 00-10.515-1.383 36.006 36.006 0 00-11.149 1.584 25.734 25.734 0 00-8.239 4.293 18.519 18.519 0 00-5.128 6.28 16.877 16.877 0 00-1.758 7.548h16.018a7.329 7.329 0 012.247-5.618q2.247-2.1 7.145-2.1 5.531 0 8.469 2.622a9.055 9.055 0 012.939 7.116v3.688h-8.931q-14.577 0-21.923 5.387t-7.346 15.24A17.291 17.291 0 00317 80.5a17.557 17.557 0 004.494 5.906 20.864 20.864 0 006.885 3.86 26.764 26.764 0 008.787 1.383 25.951 25.951 0 005.474-.547 23.116 23.116 0 004.638-1.5 21.273 21.273 0 003.831-2.218 20.969 20.969 0 003.054-2.708q.288 1.672.691 3.169a14.084 14.084 0 00.98 2.65h16.248zm-38.4-13.367a7.028 7.028 0 01-2.276-5.358 9.59 9.59 0 01.807-3.947 8.031 8.031 0 012.477-3.111 12.214 12.214 0 014.322-2.017 24.668 24.668 0 016.395-.72h8.182V72.7a11.018 11.018 0 01-1.9 2.391 13.24 13.24 0 01-2.88 2.1 17.3 17.3 0 01-3.746 1.5 16.72 16.72 0 01-4.494.576q-4.613-.002-6.889-2.134zM389 41.237h15.729v50.7a12.543 12.543 0 01-.864 4.984 8.375 8.375 0 01-2.334 3.2 8.87 8.87 0 01-3.514 1.729 17.692 17.692 0 01-4.35.518q-.578 0-1.758-.029t-2.477-.115q-1.3-.087-2.535-.23a16.268 16.268 0 01-1.931-.317l-.808 13.023a32.586 32.586 0 005.07.778q2.649.2 5.243.2a41.2 41.2 0 0011.178-1.383 21.585 21.585 0 008.3-4.293 18.627 18.627 0 005.185-7.375 28.745 28.745 0 001.787-10.688V28.158H389v13.079zm15.3-25.611a7.862 7.862 0 001.844 2.708 8.338 8.338 0 002.881 1.757 10.713 10.713 0 003.774.634 9.4 9.4 0 006.77-2.391 8.108 8.108 0 002.501-6.134 8.11 8.11 0 00-2.506-6.136 9.4 9.4 0 00-6.77-2.391 10.732 10.732 0 00-3.774.634 8.351 8.351 0 00-2.881 1.757A7.87 7.87 0 00404.3 8.77a8.8 8.8 0 00-.663 3.428 8.789 8.789 0 00.663 3.429zM3.317 106.609V190.5h14.866v-24.833l-.691-37.682 9.853 34.859h8.009l11-36.414-.691 39.237V190.5h14.868v-83.891H40.423l-9.046 31.517-7.951-31.517H3.317zM121.873 190.5v-.979a21.167 21.167 0 01-1.844-5.647 44.928 44.928 0 01-.634-8.3v-26.731a21.445 21.445 0 00-2.016-9.536 18.838 18.838 0 00-5.589-6.828 25.24 25.24 0 00-8.441-4.09 38.349 38.349 0 00-10.515-1.383 36.008 36.008 0 00-11.149 1.584 25.735 25.735 0 00-8.239 4.293 18.522 18.522 0 00-5.128 6.28 16.876 16.876 0 00-1.757 7.548h16.017a7.33 7.33 0 012.247-5.618q2.247-2.1 7.144-2.1 5.531 0 8.469 2.622a9.054 9.054 0 012.939 7.116v3.687h-8.93q-14.578 0-21.923 5.387t-7.346 15.24a17.29 17.29 0 001.613 7.461 17.552 17.552 0 004.494 5.906 20.871 20.871 0 006.885 3.861 26.784 26.784 0 008.787 1.382 25.919 25.919 0 005.474-.547 23.112 23.112 0 004.638-1.5 21.288 21.288 0 003.831-2.218 21.033 21.033 0 003.054-2.708q.288 1.671.691 3.169a14.09 14.09 0 00.98 2.65h16.248zm-38.4-13.367a7.029 7.029 0 01-2.276-5.359 9.6 9.6 0 01.803-3.946 8.038 8.038 0 012.478-3.112A12.2 12.2 0 0188.8 162.7a24.66 24.66 0 016.4-.721h8.182V172.7a10.989 10.989 0 01-1.9 2.391 13.219 13.219 0 01-2.88 2.1 17.259 17.259 0 01-3.745 1.5 16.7 16.7 0 01-4.494.577q-4.617-.003-6.892-2.135zm49.1-62.054h18.668v62.4h-18.672V190.5h52.72v-13.021h-17.862V102h-34.858v13.079zm99.883 75.421h14.52v-62.342H230.9v43.732a11.771 11.771 0 01-4.552 4.984 14.864 14.864 0 01-7.778 1.814 14.463 14.463 0 01-4.783-.691 6.691 6.691 0 01-3.169-2.276 10.331 10.331 0 01-1.757-4.177 31.587 31.587 0 01-.547-6.4v-36.99H192.3v36.875a40.726 40.726 0 001.585 12.129 22.5 22.5 0 004.465 8.3 17 17 0 006.914 4.754 25.319 25.319 0 008.873 1.5 18.794 18.794 0 009.766-2.65 24.044 24.044 0 007.634-7.318zm43.106-13.194a11.51 11.51 0 01-3.976-4.12 17.909 17.909 0 01-2.045-5.935 41.5 41.5 0 01-.576-7v-1.729a38.788 38.788 0 01.605-6.914 18.706 18.706 0 012.074-5.934 10.891 10.891 0 0110.227-5.7 12.549 12.549 0 014.782.893 11.717 11.717 0 013.745 2.391 9.853 9.853 0 012.363 3.572 10.51 10.51 0 01.691 4.379h15.1a23.409 23.409 0 00-1.844-10 21.654 21.654 0 00-5.5-7.6 25.256 25.256 0 00-8.441-4.869 31.829 31.829 0 00-10.659-1.728 30.275 30.275 0 00-12.647 2.477 26.271 26.271 0 00-9.133 6.742 28.37 28.37 0 00-5.531 10 39.935 39.935 0 00-1.844 12.3v1.729a39.362 39.362 0 001.873 12.3 28.94 28.94 0 005.531 10 25.609 25.609 0 009.132 6.712 30.938 30.938 0 0012.734 2.449 30.3 30.3 0 0010.169-1.7 27.5 27.5 0 008.441-4.7 22.173 22.173 0 005.733-7.144 18.6 18.6 0 001.988-8.988h-15.1a7.816 7.816 0 01-.778 3.975 8.931 8.931 0 01-2.506 3.054 11.992 11.992 0 01-3.745 1.959 14.482 14.482 0 01-4.494.691 11.891 11.891 0 01-6.369-1.562zM332.9 102h-16.018v88.5H332.9v-45a12.936 12.936 0 014.869-4.033 17.584 17.584 0 0111.955-.72 9.25 9.25 0 016.137 6.136 17.737 17.737 0 01.835 5.762V190.5h16.018v-37.739a36.913 36.913 0 00-1.642-11.725 21.378 21.378 0 00-4.581-7.98 17.8 17.8 0 00-7.029-4.581 26.44 26.44 0 00-8.989-1.469 19.534 19.534 0 00-10 2.593 23.317 23.317 0 00-7.577 7.144V102zm46.534 26.158V190.5h16.075v-44.308a13 13 0 014.667-4.523 13.876 13.876 0 016.972-1.642 20.477 20.477 0 014.955.548 8.72 8.72 0 013.745 1.93 8.816 8.816 0 012.391 3.774 18.7 18.7 0 01.836 6.078V190.5h16.017v-38.373a36.816 36.816 0 00-1.584-11.552 20.686 20.686 0 00-4.437-7.779 16.916 16.916 0 00-6.77-4.407 25.813 25.813 0 00-8.642-1.383 22.08 22.08 0 00-10.6 2.564 23.675 23.675 0 00-8.124 7.231l-.979-8.643h-14.52zm66.815 13.079h17.746v36.242h-17.747V190.5h50.819v-13.021h-16.882v-49.321h-33.937v13.079zm17.257-25.611a7.688 7.688 0 001.872 2.708 8.67 8.67 0 002.91 1.758 10.715 10.715 0 003.774.634 9.4 9.4 0 006.77-2.392 8.765 8.765 0 000-12.272 9.406 9.406 0 00-6.77-2.391 10.715 10.715 0 00-3.774.634 8.685 8.685 0 00-2.91 1.757 7.7 7.7 0 00-1.872 2.708 9.194 9.194 0 00-.001 6.856zm82.17 74.874h19.647l-26.793-36.356 23.508-25.986h-19.244l-17.228 18.9-4.839 5.531V102h-16.018v88.5h16.018v-19.014l7.259-6.741z" fill-rule="evenodd"/></svg>