<svg xmlns="http://www.w3.org/2000/svg" width="572" height="200" viewBox="0 0 572 200">
  <defs>
    <style>
      .cls-1 {
        fill-rule: evenodd;
      }
    </style>
  </defs>
  <path id="Mikołaj_Maluchnik" data-name="Mikołaj Maluchnik" class="cls-1" d="M3.317,6.609V90.5H18.183V65.667L17.491,27.985l9.853,34.858h8.009l11-36.414L45.666,65.667V90.5H60.531V6.609H40.423L31.377,38.126,23.426,6.609H3.317ZM70.939,41.237H88.685V77.479H70.939V90.5h50.819V77.479H104.876V28.158H70.939V41.237ZM88.2,15.627a7.684,7.684,0,0,0,1.873,2.708,8.664,8.664,0,0,0,2.91,1.757,10.715,10.715,0,0,0,3.774.634,9.4,9.4,0,0,0,6.77-2.391,8.1,8.1,0,0,0,2.506-6.136,8.107,8.107,0,0,0-2.506-6.136,9.4,9.4,0,0,0-6.77-2.391,10.735,10.735,0,0,0-3.774.634,8.679,8.679,0,0,0-2.91,1.757A7.691,7.691,0,0,0,88.2,8.77a8.792,8.792,0,0,0-.663,3.428A8.787,8.787,0,0,0,88.2,15.627ZM170.366,90.5h19.647L163.221,54.144l23.508-25.985H167.485l-17.228,18.9-4.84,5.531V2H129.4V90.5h16.017V71.486l7.26-6.741Zm19.223-30.537a39.24,39.24,0,0,0,1.959,12.647,28.989,28.989,0,0,0,5.733,10.054,26.057,26.057,0,0,0,9.276,6.655,31.171,31.171,0,0,0,12.532,2.391,30.814,30.814,0,0,0,12.445-2.391,25.848,25.848,0,0,0,9.219-6.655,29.233,29.233,0,0,0,5.7-10.054,39.24,39.24,0,0,0,1.959-12.647v-1.21a39.056,39.056,0,0,0-1.959-12.589,29,29,0,0,0-5.733-10.054,26.452,26.452,0,0,0-9.247-6.684,33.435,33.435,0,0,0-24.977,0,26.509,26.509,0,0,0-9.219,6.684,29,29,0,0,0-5.733,10.054,39.056,39.056,0,0,0-1.959,12.589v1.21Zm16.018-1.21a33.368,33.368,0,0,1,.749-7.2,18.935,18.935,0,0,1,2.362-5.992,12.073,12.073,0,0,1,4.148-4.091,11.8,11.8,0,0,1,6.108-1.5,11.318,11.318,0,0,1,10.285,5.589,19.438,19.438,0,0,1,2.333,5.992,33.431,33.431,0,0,1,.749,7.2v1.21a34.388,34.388,0,0,1-.749,7.346,19.054,19.054,0,0,1-2.333,5.992,11.913,11.913,0,0,1-4.12,4.062,11.679,11.679,0,0,1-6.05,1.5,11.557,11.557,0,0,1-10.371-5.56,18.568,18.568,0,0,1-2.362-5.992,34.324,34.324,0,0,1-.749-7.346v-1.21ZM293.337,2H258.479V15.079h18.668V38.933L259.17,46.884V58.119l17.977-7.951v27.31H258.479V90.5H311.2V77.479H293.337V43.023l16.19-7.2V24.586l-16.19,7.2V2Zm78.742,88.5v-0.98a21.152,21.152,0,0,1-1.844-5.647,44.932,44.932,0,0,1-.634-8.3V48.843a21.442,21.442,0,0,0-2.016-9.536A18.837,18.837,0,0,0,362,32.48a25.238,25.238,0,0,0-8.441-4.091,38.351,38.351,0,0,0-10.515-1.383,36.006,36.006,0,0,0-11.149,1.584,25.734,25.734,0,0,0-8.239,4.293,18.519,18.519,0,0,0-5.128,6.28,16.877,16.877,0,0,0-1.758,7.548h16.018a7.329,7.329,0,0,1,2.247-5.618q2.247-2.1,7.145-2.1,5.531,0,8.469,2.622a9.055,9.055,0,0,1,2.939,7.116v3.688h-8.931q-14.577,0-21.923,5.387t-7.346,15.24A17.291,17.291,0,0,0,317,80.5a17.557,17.557,0,0,0,4.494,5.906,20.864,20.864,0,0,0,6.885,3.86,26.764,26.764,0,0,0,8.787,1.383,25.951,25.951,0,0,0,5.474-.547,23.116,23.116,0,0,0,4.638-1.5,21.273,21.273,0,0,0,3.831-2.218,20.969,20.969,0,0,0,3.054-2.708q0.288,1.672.691,3.169a14.084,14.084,0,0,0,.98,2.65h16.248Zm-38.4-13.367a7.028,7.028,0,0,1-2.276-5.358,9.59,9.59,0,0,1,.807-3.947,8.031,8.031,0,0,1,2.477-3.111,12.214,12.214,0,0,1,4.322-2.017,24.668,24.668,0,0,1,6.395-.72h8.182V72.7a11.018,11.018,0,0,1-1.9,2.391,13.24,13.24,0,0,1-2.88,2.1,17.3,17.3,0,0,1-3.746,1.5,16.72,16.72,0,0,1-4.494.576Q335.953,79.265,333.677,77.133ZM389,41.237h15.729v50.7a12.543,12.543,0,0,1-.864,4.984,8.375,8.375,0,0,1-2.334,3.2,8.87,8.87,0,0,1-3.514,1.729,17.692,17.692,0,0,1-4.35.518q-0.578,0-1.758-.029t-2.477-.115q-1.3-.087-2.535-0.23a16.268,16.268,0,0,1-1.931-.317L384.158,114.7a32.586,32.586,0,0,0,5.07.778q2.649,0.2,5.243.2a41.2,41.2,0,0,0,11.178-1.383,21.585,21.585,0,0,0,8.3-4.293,18.627,18.627,0,0,0,5.185-7.375,28.745,28.745,0,0,0,1.787-10.688V28.158H389V41.237Zm15.3-25.611a7.862,7.862,0,0,0,1.844,2.708,8.338,8.338,0,0,0,2.881,1.757,10.713,10.713,0,0,0,3.774.634,9.4,9.4,0,0,0,6.77-2.391A8.108,8.108,0,0,0,422.07,12.2a8.11,8.11,0,0,0-2.506-6.136,9.4,9.4,0,0,0-6.77-2.391,10.732,10.732,0,0,0-3.774.634,8.351,8.351,0,0,0-2.881,1.757A7.87,7.87,0,0,0,404.3,8.77a8.8,8.8,0,0,0-.663,3.428A8.789,8.789,0,0,0,404.3,15.627ZM3.317,106.609V190.5H18.183V165.667l-0.691-37.682,9.853,34.859h8.009l11-36.414-0.691,39.237V190.5H60.531V106.609H40.423l-9.046,31.517-7.951-31.517H3.317ZM121.873,190.5v-0.979a21.167,21.167,0,0,1-1.844-5.647,44.928,44.928,0,0,1-.634-8.3V148.843a21.445,21.445,0,0,0-2.016-9.536,18.838,18.838,0,0,0-5.589-6.828,25.24,25.24,0,0,0-8.441-4.09,38.349,38.349,0,0,0-10.515-1.383,36.008,36.008,0,0,0-11.149,1.584,25.735,25.735,0,0,0-8.239,4.293,18.522,18.522,0,0,0-5.128,6.28,16.876,16.876,0,0,0-1.757,7.548H82.578a7.33,7.33,0,0,1,2.247-5.618q2.247-2.1,7.144-2.1,5.531,0,8.469,2.622a9.054,9.054,0,0,1,2.939,7.116v3.687H94.447q-14.578,0-21.923,5.387t-7.346,15.24a17.29,17.29,0,0,0,1.613,7.461,17.552,17.552,0,0,0,4.494,5.906,20.871,20.871,0,0,0,6.885,3.861,26.784,26.784,0,0,0,8.787,1.382,25.919,25.919,0,0,0,5.474-.547,23.112,23.112,0,0,0,4.638-1.5,21.288,21.288,0,0,0,3.831-2.218,21.033,21.033,0,0,0,3.054-2.708q0.288,1.671.691,3.169a14.09,14.09,0,0,0,.98,2.65h16.248Zm-38.4-13.367a7.029,7.029,0,0,1-2.276-5.359A9.6,9.6,0,0,1,82,167.828a8.038,8.038,0,0,1,2.478-3.112A12.2,12.2,0,0,1,88.8,162.7a24.66,24.66,0,0,1,6.4-.721h8.182V172.7a10.989,10.989,0,0,1-1.9,2.391,13.219,13.219,0,0,1-2.88,2.1,17.259,17.259,0,0,1-3.745,1.5,16.7,16.7,0,0,1-4.494.577Q85.746,179.265,83.471,177.133Zm49.1-62.054h18.668v62.4H132.569V190.5h52.72V177.479H167.427V102H132.569v13.079ZM232.456,190.5h14.52V128.158H230.9V171.89a11.771,11.771,0,0,1-4.552,4.984,14.864,14.864,0,0,1-7.778,1.814,14.463,14.463,0,0,1-4.783-.691,6.691,6.691,0,0,1-3.169-2.276,10.331,10.331,0,0,1-1.757-4.177,31.587,31.587,0,0,1-.547-6.4v-36.99H192.3v36.875a40.726,40.726,0,0,0,1.585,12.129,22.5,22.5,0,0,0,4.465,8.3,17,17,0,0,0,6.914,4.754,25.319,25.319,0,0,0,8.873,1.5,18.794,18.794,0,0,0,9.766-2.65,24.044,24.044,0,0,0,7.634-7.318Zm43.106-13.194a11.51,11.51,0,0,1-3.976-4.12,17.909,17.909,0,0,1-2.045-5.935,41.5,41.5,0,0,1-.576-7v-1.729a38.788,38.788,0,0,1,.605-6.914,18.706,18.706,0,0,1,2.074-5.934,10.891,10.891,0,0,1,10.227-5.7,12.549,12.549,0,0,1,4.782.893,11.717,11.717,0,0,1,3.745,2.391,9.853,9.853,0,0,1,2.363,3.572,10.51,10.51,0,0,1,.691,4.379h15.1a23.409,23.409,0,0,0-1.844-10,21.654,21.654,0,0,0-5.5-7.6,25.256,25.256,0,0,0-8.441-4.869,31.829,31.829,0,0,0-10.659-1.728,30.275,30.275,0,0,0-12.647,2.477,26.271,26.271,0,0,0-9.133,6.742,28.37,28.37,0,0,0-5.531,10,39.935,39.935,0,0,0-1.844,12.3v1.729a39.362,39.362,0,0,0,1.873,12.3,28.94,28.94,0,0,0,5.531,10,25.609,25.609,0,0,0,9.132,6.712,30.938,30.938,0,0,0,12.734,2.449,30.3,30.3,0,0,0,10.169-1.7,27.5,27.5,0,0,0,8.441-4.7,22.173,22.173,0,0,0,5.733-7.144,18.6,18.6,0,0,0,1.988-8.988h-15.1a7.816,7.816,0,0,1-.778,3.975,8.931,8.931,0,0,1-2.506,3.054,11.992,11.992,0,0,1-3.745,1.959,14.482,14.482,0,0,1-4.494.691A11.891,11.891,0,0,1,275.562,177.306ZM332.9,102H316.882v88.5H332.9v-45a12.936,12.936,0,0,1,4.869-4.033,17.584,17.584,0,0,1,11.955-.72,9.25,9.25,0,0,1,6.137,6.136,17.737,17.737,0,0,1,.835,5.762V190.5h16.018V152.761a36.913,36.913,0,0,0-1.642-11.725,21.378,21.378,0,0,0-4.581-7.98,17.8,17.8,0,0,0-7.029-4.581,26.44,26.44,0,0,0-8.989-1.469,19.534,19.534,0,0,0-10,2.593,23.317,23.317,0,0,0-7.577,7.144V102Zm46.534,26.158V190.5h16.075V146.192a13,13,0,0,1,4.667-4.523,13.876,13.876,0,0,1,6.972-1.642,20.477,20.477,0,0,1,4.955.548,8.72,8.72,0,0,1,3.745,1.93,8.816,8.816,0,0,1,2.391,3.774,18.7,18.7,0,0,1,.836,6.078V190.5h16.017V152.127a36.816,36.816,0,0,0-1.584-11.552,20.686,20.686,0,0,0-4.437-7.779,16.916,16.916,0,0,0-6.77-4.407,25.813,25.813,0,0,0-8.642-1.383,22.08,22.08,0,0,0-10.6,2.564,23.675,23.675,0,0,0-8.124,7.231l-0.979-8.643h-14.52Zm66.815,13.079h17.746v36.242H446.248V190.5h50.819V177.479H480.185V128.158H446.248v13.079Zm17.257-25.611a7.688,7.688,0,0,0,1.872,2.708,8.67,8.67,0,0,0,2.91,1.758,10.715,10.715,0,0,0,3.774.634,9.4,9.4,0,0,0,6.77-2.392,8.765,8.765,0,0,0,0-12.272,9.406,9.406,0,0,0-6.77-2.391,10.715,10.715,0,0,0-3.774.634,8.685,8.685,0,0,0-2.91,1.757,7.7,7.7,0,0,0-1.872,2.708A9.194,9.194,0,0,0,463.505,115.626Zm82.17,74.874h19.647L538.53,154.144l23.508-25.986H542.794l-17.228,18.9-4.839,5.531V102H504.709v88.5h16.018V171.486l7.259-6.741Z"/>
</svg>
