<svg xmlns="http://www.w3.org/2000/svg" width="590" height="192" viewBox="0 0 590 192">
  <defs>
    <style>
      .cls-1 {
        fill-rule: evenodd;
      }
    </style>
  </defs>
  <path id="Mikołaj_Maluchnik" data-name="Mikołaj Maluchnik" class="cls-1" d="M8.6,6.609V90.5h7.087V53.74L15.112,16.808,46.226,90.5H51.7L82.928,16.52,82.352,53.971V90.5h7.087V6.609H79.989L48.934,80.648,17.993,6.609H8.6Zm110.74,0h-7.087V90.5h7.087V6.609ZM195.166,90.5h8.643L165.954,43.945,201.1,6.609H192.17l-42.983,45.23V6.609H142.1V90.5h7.086V60.481L161,48.843Zm81.586-47.419a47.5,47.5,0,0,0-4.206-19.763,30.67,30.67,0,0,0-11.437-13.194,33.389,33.389,0,0,0-34.2.086,31.029,31.029,0,0,0-11.5,13.6,48.176,48.176,0,0,0-4.062,20.31v8.642q0,17.862,9.046,28.377t23.739,10.515a31.314,31.314,0,0,0,17.17-4.725,30.56,30.56,0,0,0,11.437-13.482,48.478,48.478,0,0,0,4-20.339V43.081Zm-7.087,9.795q0,15.384-6.741,24t-18.783,8.614q-11.871,0-18.784-8.729t-6.914-23.652V44.349q0-15.44,6.943-24.055t18.639-8.614q11.928,0,18.784,8.585T269.665,44v8.873ZM301.527,6.609h-7.144V45.731l-9.161,2.881V53.8l9.161-2.881V90.5H342.9V84.508H301.527v-35.9l17.689-5.589V37.838l-17.689,5.589V6.609ZM410.942,90.5h7.375L386.57,6.609h-6.741L348.082,90.5h7.433l8.642-23.565h38.085ZM383.171,15.252L400,60.942H366.347Zm84.524,50.7q-0.115,9.1-5.156,14.4a17.2,17.2,0,0,1-13.051,5.3q-8.7,0-13.482-4.581T431.224,67.4h-7.087q0,11.466,6.568,17.861t18.783,6.4q11.582,0,18.467-7.087t6.885-19.014V6.609H467.7V65.955ZM8.6,101.609V185.5h7.087V148.74l-0.576-36.932L46.226,185.5H51.7l31.229-73.98-0.576,37.451V185.5h7.087V101.609H79.989L48.934,175.647l-30.94-74.038H8.6ZM156.52,185.5H163.9l-31.747-83.891h-6.742L93.659,185.5h7.433l8.642-23.565h38.085Zm-27.772-75.248,16.824,45.69H111.924Zm45.417-8.643h-7.144V185.5h48.571v-5.992H174.165v-77.9Zm93.355,0V158.42q0,10.487-6.021,16.363t-16.392,5.877q-10.371,0-16.421-5.848t-6.05-16.45V101.609h-7.029V159.4q0.288,12.792,8.268,20.022t21.232,7.231a33.9,33.9,0,0,0,15.412-3.37,24.538,24.538,0,0,0,10.4-9.651,29,29,0,0,0,3.745-14.75V101.609H267.52Zm69.962,57.733q-1.326,10.66-6.972,15.989t-16.766,5.329q-11.237,0-17.833-8.649t-6.6-23.18V138.567q0-15.048,6.77-23.583t18.178-8.535q20.57,0,23.22,21.376h7.144q-1.267-12.847-9.074-20.108t-21.29-7.26a30.721,30.721,0,0,0-16.911,4.7,30.135,30.135,0,0,0-11.264,13.338,47.54,47.54,0,0,0-3.918,19.821V149.2a47.081,47.081,0,0,0,3.976,19.561,30.43,30.43,0,0,0,11.091,13.223,29.586,29.586,0,0,0,16.508,4.667q13.365,0,21.4-7.029t9.478-20.281h-7.144Zm77.337-57.733h-7.145v37.682H359.737V101.609H352.65V185.5h7.087V145.283h47.937V185.5h7.145V101.609Zm74.571,0h-7.029v71.849l-48.283-71.849h-7.145V185.5h7.145V113.709L482.3,185.5h7.087V101.609Zm20.757,0H503.06V185.5h7.087V101.609Zm66.62,83.891h8.643l-37.855-46.555L582.7,101.609h-8.931l-42.982,45.23v-45.23H523.7V185.5h7.087V155.481L542.6,143.843Z"/>
</svg>
